PathFileType  4	(X/Y/Z) C:\Users\antoi\Documents\MyRepositories\mobilecap\ResultsAnalysis
DataRate	CameraRate	NumFrames	NumMarkers	Units	OrigDataRate	OrigDataStartFrame	OrigNumFrames
100.0	100.0	4	51	mm	100.0	33	256
Frame#	Time	r_knee			r_shank_antsup			r_ankle			r_calc			r_5meta			r_toe			L_knee			L_shank_antsup			L_ankle			L_calc			L_5meta			L_toe			r_sh2			r_sh3			r_sh4			L_sh2			L_sh3			r_thigh1			r_thigh2			r_thigh3			r_thigh4			r_thigh5			L_thigh1			L_thigh2			L_thigh3			L_thigh4			r.ASIS			r.PSIS			L.ASIS			L.PSIS			C7			R_Shoulder			L_Shoulder			R_Sternum			L_Sternum			R_humerus			R_elbow_med			R_elbow_lat			R_forearm			R_wrist_radius			R_wrist_ulna			L_humerus			L_elbow_med			L_elbow_lat			L_forearm			L_wrist_radius			L_wrist_ulna			R_HJC			L_HJC			R_HJC_reg			L_HJC_reg			
		X1	Y1	Z1	X2	Y2	Z2	X3	Y3	Z3	X4	Y4	Z4	X5	Y5	Z5	X6	Y6	Z6	X7	Y7	Z7	X8	Y8	Z8	X9	Y9	Z9	X10	Y10	Z10	X11	Y11	Z11	X12	Y12	Z12	X13	Y13	Z13	X14	Y14	Z14	X15	Y15	Z15	X16	Y16	Z16	X17	Y17	Z17	X18	Y18	Z18	X19	Y19	Z19	X20	Y20	Z20	X21	Y21	Z21	X22	Y22	Z22	X23	Y23	Z23	X24	Y24	Z24	X25	Y25	Z25	X26	Y26	Z26	X27	Y27	Z27	X28	Y28	Z28	X29	Y29	Z29	X30	Y30	Z30	X31	Y31	Z31	X32	Y32	Z32	X33	Y33	Z33	X34	Y34	Z34	X35	Y35	Z35	X36	Y36	Z36	X37	Y37	Z37	X38	Y38	Z38	X39	Y39	Z39	X40	Y40	Z40	X41	Y41	Z41	X42	Y42	Z42	X43	Y43	Z43	X44	Y44	Z44	X45	Y45	Z45	X46	Y46	Z46	X47	Y47	Z47	X48	Y48	Z48	X49	Y49	Z49	X50	Y50	Z50	X51	Y51	Z51	

33	0.32000000	-1061.81624	892.21922	-400.33952	-1139.90214	765.27647	-368.12091	-1287.28406	438.76009	-410.29993	-1351.35565	422.17338	-474.10191	-1171.21131	351.50914	-383.01312	-1128.89093	373.89429	-432.51378	-1124.08637	875.82590	-752.38099	-1136.97847	670.44057	-728.90933	-1320.19216	420.32881	-726.38498	-1379.44964	383.25163	-657.74902	-1192.27359	345.68288	-777.36927	-1146.86184	376.76387	-721.86147	-1193.51803	668.51715	-364.08977	-1079.48430	739.82204	-405.46420	-1130.63717	639.40035	-412.96747	-1197.75916	704.15870	-783.19434	-1251.55410	599.12533	-765.07990	-1123.83863	1178.34386	-384.41325	-1070.28555	1080.26731	-383.58436	-1116.15531	1029.01407	-375.02697	-1222.22036	1126.49228	-409.35897	-1166.54819	1021.35609	-398.55662	-1232.22271	1150.00670	-780.91021	-1197.31934	1016.53790	-781.79144	-1124.02092	1172.49305	-774.76276	-1092.38311	1040.45732	-763.46955	-1120.87373	1397.41966	-463.70216	-1284.67087	1494.24737	-545.88488	-1143.11744	1389.91961	-736.56460	-1288.67629	1496.61829	-638.78594	-981.15437	1888.67159	-625.86059	-919.32404	1821.47905	-458.58288	-945.86613	1827.25126	-795.54105	-896.65700	1745.79293	-600.01641	-899.74254	1745.12101	-651.72745	-1037.87535	1615.23218	-330.80568	-1179.01569	1542.67227	-328.91586	-1136.47594	1572.91459	-256.52940	-976.92052	1441.36461	-316.44270	-915.19814	1389.67145	-354.70614	-922.14902	1371.81927	-321.31874	-1069.35529	1586.89988	-896.53264	-1202.68114	1556.75445	-888.30740	-1149.26405	1547.84245	-954.89324	-1002.15935	1434.05692	-864.45345	-955.10186	1406.00194	-820.34782	-963.28934	1383.19805	-843.87185	-1231.89794	1338.87067	-493.76147	-1249.55208	1339.31677	-690.44673	-1221.89575	1338.70445	-499.86036	-1229.67936	1343.31174	-680.38825	
34	0.33000000	-1055.07340	891.17966	-399.96509	-1134.05229	764.97044	-368.02856	-1285.54832	440.88698	-410.07883	-1349.88416	424.96850	-473.94794	-1170.66708	351.88516	-383.06210	-1128.23281	373.78176	-432.73010	-1118.35655	873.73556	-752.75881	-1133.49811	668.18878	-728.68077	-1319.81047	420.36828	-726.28722	-1379.31153	383.42129	-657.78191	-1192.10311	345.55520	-777.68892	-1146.71409	376.38340	-721.82371	-1188.85190	668.98694	-364.08712	-1073.84465	738.93456	-405.29048	-1126.33809	639.17634	-412.71083	-1193.69321	702.57579	-783.51252	-1248.83627	598.18066	-765.29570	-1121.04092	1176.34142	-384.40830	-1066.33318	1079.09055	-382.85914	-1110.95975	1026.52853	-375.04504	-1218.71669	1122.74815	-409.17096	-1161.28808	1018.32371	-398.35486	-1229.99174	1146.22031	-781.31204	-1193.52839	1013.13231	-782.06281	-1122.07877	1169.98531	-775.19099	-1088.74120	1038.39473	-764.16775	-1120.26185	1392.32904	-464.11442	-1283.37099	1490.34586	-546.29665	-1142.70428	1385.02213	-737.06767	-1287.41670	1492.80176	-639.31923	-976.01986	1881.77572	-626.58340	-914.37175	1813.93039	-459.32289	-940.93494	1820.28594	-795.91984	-892.66250	1738.02562	-600.76443	-895.69112	1737.28286	-652.33019	-1031.66746	1607.51685	-330.95797	-1172.58738	1534.93383	-328.28766	-1129.50994	1564.88749	-256.07175	-970.28528	1433.59678	-317.69501	-908.88433	1382.09068	-356.71774	-915.51038	1364.22769	-323.36127	-1061.60929	1578.04607	-895.96392	-1194.16870	1546.18805	-888.78716	-1140.62806	1537.66994	-954.99796	-992.41690	1425.72358	-863.66855	-945.10932	1398.24431	-818.81656	-953.02395	1375.30366	-842.72805	-1231.75546	1334.61255	-494.22121	-1249.46162	1335.19229	-690.90138	-1221.72886	1334.26644	-500.26568	-1229.58272	1339.03408	-680.85352	
35	0.34000000	-1048.44658	889.78957	-399.65636	-1128.18780	764.59732	-367.88771	-1283.90541	442.54911	-409.89985	-1348.51454	427.54125	-473.64822	-1169.93549	352.42433	-382.79975	-1127.58935	373.58596	-432.80155	-1112.62902	871.08922	-752.74896	-1129.91536	665.85977	-728.59255	-1319.39175	420.41578	-726.07932	-1379.15634	383.50069	-657.52024	-1191.97116	345.41945	-777.88656	-1146.55259	376.03241	-721.76909	-1184.30487	669.28316	-363.98497	-1068.31587	737.78664	-405.17212	-1122.09838	638.80543	-412.54645	-1189.62846	701.02582	-783.81012	-1246.06200	597.22812	-765.36888	-1117.87719	1173.95642	-384.65292	-1062.18226	1077.54180	-382.31082	-1105.90636	1024.30298	-374.85628	-1215.04534	1118.78201	-408.97517	-1155.90971	1014.99084	-398.21338	-1227.43104	1142.17840	-781.69581	-1189.39004	1009.57840	-782.26556	-1119.93413	1167.30010	-775.53953	-1084.76400	1036.07900	-764.77779	-1119.36348	1387.14897	-464.58466	-1281.91340	1486.14933	-546.62450	-1142.04298	1379.91508	-737.50616	-1286.03453	1488.64388	-639.79249	-971.07304	1874.90398	-627.14977	-909.55585	1806.28589	-460.03297	-936.12382	1813.13058	-796.28415	-888.82033	1730.36252	-601.53125	-891.74487	1729.53879	-652.86443	-1025.45783	1599.70711	-331.07983	-1166.27762	1526.89462	-327.50171	-1122.64938	1556.72822	-255.53829	-963.46154	1425.64795	-318.74154	-902.33072	1374.51733	-358.67780	-908.65396	1356.65270	-325.16446	-1053.51157	1569.07021	-895.79844	-1185.72535	1535.41742	-889.09405	-1131.49113	1526.98868	-954.93937	-982.35252	1417.41148	-862.77820	-934.89252	1390.61041	-817.85810	-942.39224	1367.50972	-841.63923	-1231.24619	1330.12653	-494.60549	-1249.07721	1330.76558	-691.27418	-1221.18900	1329.66943	-500.64853	-1229.17607	1334.50406	-681.21942	
36	0.35000000	-1041.94878	888.02125	-399.52888	-1122.33841	764.01793	-367.55728	-1282.36182	443.95705	-409.76629	-1347.25051	429.86285	-473.28806	-1169.27597	352.93517	-382.42324	-1126.99908	373.37083	-432.78175	-1107.12627	867.89271	-752.47933	-1126.15621	663.49709	-728.81690	-1318.82069	420.58412	-725.88528	-1378.95166	383.61760	-657.17523	-1191.90096	345.22761	-777.92406	-1146.36005	375.63879	-721.72719	-1179.84198	669.54449	-363.74914	-1063.02560	736.27181	-405.39646	-1118.01802	637.97627	-412.48828	-1185.52290	699.35008	-783.90238	-1243.24974	596.21697	-765.28472	-1114.74424	1171.15763	-384.54991	-1057.57734	1075.54363	-382.14555	-1100.88971	1021.86427	-374.75008	-1211.19522	1114.75656	-408.76936	-1150.56272	1011.69945	-398.15159	-1224.66663	1137.92551	-781.79302	-1184.85950	1005.89100	-782.57611	-1117.50129	1164.42127	-775.94232	-1080.54168	1033.56064	-765.39389	-1118.13880	1381.91672	-465.03986	-1280.24576	1481.71332	-546.97294	-1141.07585	1374.59885	-737.79813	-1284.47109	1484.18956	-640.16278	-966.32544	1868.01840	-627.53772	-904.91503	1798.60238	-460.75536	-931.35860	1805.91599	-796.71222	-884.99197	1722.75659	-602.17009	-887.93112	1721.99321	-653.38784	-1019.29412	1591.88380	-331.29343	-1159.78322	1518.47867	-326.67019	-1115.60533	1548.27255	-254.99658	-956.49574	1417.62837	-319.66057	-895.47982	1366.99571	-360.68675	-901.54977	1349.08340	-326.79599	-1045.26680	1560.00989	-895.68524	-1177.12237	1524.33205	-889.19043	-1122.11186	1516.12626	-954.80862	-971.96863	1409.14187	-861.94037	-924.40684	1383.08385	-817.40133	-931.58446	1359.76194	-840.63462	-1230.36061	1325.47497	-494.86946	-1248.34397	1326.05149	-691.52452	-1220.23577	1324.95411	-500.93105	-1228.41876	1329.74944	-681.40242	
